<svg xmlns="http://www.w3.org/2000/svg" viewBox="0 0 1000 1000">
  <path d="M150 0C66.9 0 0 66.9 0 150v700c0 83.1 66.9 150 150 150h700c83.1 0 150-66.9 150-150V150c0-83.1-66.9-150-150-150Z"/>
  <path fill="silver" d="M484.93 497.089q0 60.283-14.386 104.125-14.044 43.842-38.362 72.613-23.976 28.43-56.516 42.472-32.196 13.7-68.16 13.7-43.157 0-75.354-15.412-31.854-15.756-53.09-45.213-20.894-29.456-31.17-71.586-10.275-42.472-10.275-95.562 0-59.598 14.044-103.44 14.043-43.842 38.019-72.27 24.319-28.772 56.515-42.473Q278.392 270 314.356 270q43.157 0 75.011 15.756 32.197 15.756 53.433 45.212 21.236 29.114 31.511 71.244 10.618 42.13 10.618 94.877zm-63.366 4.452q0-39.39-6.166-71.928-5.822-32.882-19.18-56.515-13.359-23.634-34.595-36.65-20.893-13.015-50.692-13.015-28.772 0-49.665 14.043-20.551 13.7-33.91 37.677-13.357 23.633-19.865 55.83-6.508 31.854-6.508 67.818 0 39.732 6.165 72.614 6.166 32.539 19.181 56.172 13.358 23.292 34.252 36.307 20.893 13.016 50.35 13.016 28.771 0 49.665-13.7 20.893-14.044 34.251-37.678 13.701-23.976 20.209-55.83 6.508-31.854 6.508-68.16zm440.819 222.294h-76.724L618.169 504.28v219.554H557.2v-447.67h60.968v207.908l164.066-207.908h72.27L677.767 488.868Z"/>
</svg>
