<svg
        xmlns="http://www.w3.org/2000/svg"
        width="1200"
        height="630"
        viewBox="0 0 1200 630"
>
    <rect width="100%" height="100%" fill="#181c25"/>

    <defs>

        <pattern id="overlayPattern" width="304" height="304" patternUnits="userSpaceOnUse">
            <path fill="#FFFFFF" opacity="0.19"
                  d="M44.1 224a5 5 0 1 1 0 2H0v-2h44.1zm160 48a5 5 0 1 1 0 2H82v-2h122.1zm57.8-46a5 5 0 1 1 0-2H304v2h-42.1zm0 16a5 5 0 1 1 0-2H304v2h-42.1zm6.2-114a5 5 0 1 1 0 2h-86.2a5 5 0 1 1 0-2h86.2zm-256-48a5 5 0 1 1 0 2H0v-2h12.1zm185.8 34a5 5 0 1 1 0-2h86.2a5 5 0 1 1 0 2h-86.2zM258 12.1a5 5 0 1 1-2 0V0h2v12.1zm-64 208a5 5 0 1 1-2 0v-54.2a5 5 0 1 1 2 0v54.2zm48-198.2V80h62v2h-64V21.9a5 5 0 1 1 2 0zm16 16V64h46v2h-48V37.9a5 5 0 1 1 2 0zm-128 96V208h16v12.1a5 5 0 1 1-2 0V210h-16v-76.1a5 5 0 1 1 2 0zm-5.9-21.9a5 5 0 1 1 0 2H114v48H85.9a5 5 0 1 1 0-2H112v-48h12.1zm-6.2 130a5 5 0 1 1 0-2H176v-74.1a5 5 0 1 1 2 0V242h-60.1zm-16-64a5 5 0 1 1 0-2H114v48h10.1a5 5 0 1 1 0 2H112v-48h-10.1zM66 284.1a5 5 0 1 1-2 0V274H50v30h-2v-32h18v12.1zM236.1 176a5 5 0 1 1 0 2H226v94h48v32h-2v-30h-48v-98h12.1zm25.8-30a5 5 0 1 1 0-2H274v44.1a5 5 0 1 1-2 0V146h-10.1zm-64 96a5 5 0 1 1 0-2H208v-80h16v-14h-42.1a5 5 0 1 1 0-2H226v18h-16v80h-12.1zm86.2-210a5 5 0 1 1 0 2H272V0h2v32h10.1zM98 101.9V146H53.9a5 5 0 1 1 0-2H96v-42.1a5 5 0 1 1 2 0zM53.9 34a5 5 0 1 1 0-2H80V0h2v34H53.9zm60.1 3.9V66H82v64H69.9a5 5 0 1 1 0-2H80V64h32V37.9a5 5 0 1 1 2 0zM101.9 82a5 5 0 1 1 0-2H128V37.9a5 5 0 1 1 2 0V82h-28.1zm16-64a5 5 0 1 1 0-2H146v44.1a5 5 0 1 1-2 0V18h-26.1zm102.2 270a5 5 0 1 1 0 2H98v14h-2v-16h124.1zM242 149.9V160h16v34h-16v62h48v48h-2v-46h-48v-66h16v-30h-16v-12.1a5 5 0 1 1 2 0zM53.9 18a5 5 0 1 1 0-2H64V2H48V0h18v18H53.9zm112 32a5 5 0 1 1 0-2H192V0h50v2h-48v48h-28.1zm-48-48a5 5 0 0 1-9.8-2h2.07a3 3 0 1 0 5.66 0H178v34h-18V21.9a5 5 0 1 1 2 0V32h14V2h-58.1zm0 96a5 5 0 1 1 0-2H137l32-32h39V21.9a5 5 0 1 1 2 0V66h-40.17l-32 32H117.9zm28.1 90.1a5 5 0 1 1-2 0v-76.51L175.59 80H224V21.9a5 5 0 1 1 2 0V82h-49.59L146 112.41v75.69zm16 32a5 5 0 1 1-2 0v-99.51L184.59 96H300.1a5 5 0 0 1 3.9-3.9v2.07a3 3 0 0 0 0 5.66v2.07a5 5 0 0 1-3.9-3.9H185.41L162 121.41v98.69zm-144-64a5 5 0 1 1-2 0v-3.51l48-48V48h32V0h2v50H66v55.41l-48 48v2.69zM50 53.9v43.51l-48 48V208h26.1a5 5 0 1 1 0 2H0v-65.41l48-48V53.9a5 5 0 1 1 2 0zm-16 16V89.41l-34 34v-2.82l32-32V69.9a5 5 0 1 1 2 0zM12.1 32a5 5 0 1 1 0 2H9.41L0 43.41V40.6L8.59 32h3.51zm265.8 18a5 5 0 1 1 0-2h18.69l7.41-7.41v2.82L297.41 50H277.9zm-16 160a5 5 0 1 1 0-2H288v-71.41l16-16v2.82l-14 14V210h-28.1zm-208 32a5 5 0 1 1 0-2H64v-22.59L40.59 194H21.9a5 5 0 1 1 0-2H41.41L66 216.59V242H53.9zm150.2 14a5 5 0 1 1 0 2H96v-56.6L56.6 162H37.9a5 5 0 1 1 0-2h19.5L98 200.6V256h106.1zm-150.2 2a5 5 0 1 1 0-2H80v-46.59L48.59 178H21.9a5 5 0 1 1 0-2H49.41L82 208.59V258H53.9zM34 39.8v1.61L9.41 66H0v-2h8.59L32 40.59V0h2v39.8zM2 300.1a5 5 0 0 1 3.9 3.9H3.83A3 3 0 0 0 0 302.17V256h18v48h-2v-46H2v42.1zM34 241v63h-2v-62H0v-2h34v1zM17 18H0v-2h16V0h2v18h-1zm273-2h14v2h-16V0h2v16zm-32 273v15h-2v-14h-14v14h-2v-16h18v1zM0 92.1A5.02 5.02 0 0 1 6 97a5 5 0 0 1-6 4.9v-2.07a3 3 0 1 0 0-5.66V92.1zM80 272h2v32h-2v-32zm37.9 32h-2.07a3 3 0 0 0-5.66 0h-2.07a5 5 0 0 1 9.8 0zM5.9 0A5.02 5.02 0 0 1 0 5.9V3.83A3 3 0 0 0 3.83 0H5.9zm294.2 0h2.07A3 3 0 0 0 304 3.83V5.9a5 5 0 0 1-3.9-5.9zm3.9 300.1v2.07a3 3 0 0 0-1.83 1.83h-2.07a5 5 0 0 1 3.9-3.9zM97 100a3 3 0 1 0 0-6 3 3 0 0 0 0 6zm0-16a3 3 0 1 0 0-6 3 3 0 0 0 0 6zm16 16a3 3 0 1 0 0-6 3 3 0 0 0 0 6zm16 16a3 3 0 1 0 0-6 3 3 0 0 0 0 6zm0 16a3 3 0 1 0 0-6 3 3 0 0 0 0 6zm-48 32a3 3 0 1 0 0-6 3 3 0 0 0 0 6zm16 16a3 3 0 1 0 0-6 3 3 0 0 0 0 6zm32 48a3 3 0 1 0 0-6 3 3 0 0 0 0 6zm-16 16a3 3 0 1 0 0-6 3 3 0 0 0 0 6zm32-16a3 3 0 1 0 0-6 3 3 0 0 0 0 6zm0-32a3 3 0 1 0 0-6 3 3 0 0 0 0 6zm16 32a3 3 0 1 0 0-6 3 3 0 0 0 0 6zm32 16a3 3 0 1 0 0-6 3 3 0 0 0 0 6zm0-16a3 3 0 1 0 0-6 3 3 0 0 0 0 6zm-16-64a3 3 0 1 0 0-6 3 3 0 0 0 0 6zm16 0a3 3 0 1 0 0-6 3 3 0 0 0 0 6zm16 96a3 3 0 1 0 0-6 3 3 0 0 0 0 6zm0 16a3 3 0 1 0 0-6 3 3 0 0 0 0 6zm16 16a3 3 0 1 0 0-6 3 3 0 0 0 0 6zm16-144a3 3 0 1 0 0-6 3 3 0 0 0 0 6zm0 32a3 3 0 1 0 0-6 3 3 0 0 0 0 6zm16-32a3 3 0 1 0 0-6 3 3 0 0 0 0 6zm16-16a3 3 0 1 0 0-6 3 3 0 0 0 0 6zm-96 0a3 3 0 1 0 0-6 3 3 0 0 0 0 6zm0 16a3 3 0 1 0 0-6 3 3 0 0 0 0 6zm16-32a3 3 0 1 0 0-6 3 3 0 0 0 0 6zm96 0a3 3 0 1 0 0-6 3 3 0 0 0 0 6zm-16-64a3 3 0 1 0 0-6 3 3 0 0 0 0 6zm16-16a3 3 0 1 0 0-6 3 3 0 0 0 0 6zm-32 0a3 3 0 1 0 0-6 3 3 0 0 0 0 6zm0-16a3 3 0 1 0 0-6 3 3 0 0 0 0 6zm-16 0a3 3 0 1 0 0-6 3 3 0 0 0 0 6zm-16 0a3 3 0 1 0 0-6 3 3 0 0 0 0 6zm-16 0a3 3 0 1 0 0-6 3 3 0 0 0 0 6zM49 36a3 3 0 1 0 0-6 3 3 0 0 0 0 6zm-32 0a3 3 0 1 0 0-6 3 3 0 0 0 0 6zm32 16a3 3 0 1 0 0-6 3 3 0 0 0 0 6zM33 68a3 3 0 1 0 0-6 3 3 0 0 0 0 6zm16-48a3 3 0 1 0 0-6 3 3 0 0 0 0 6zm0 240a3 3 0 1 0 0-6 3 3 0 0 0 0 6zm16 32a3 3 0 1 0 0-6 3 3 0 0 0 0 6zm-16-64a3 3 0 1 0 0-6 3 3 0 0 0 0 6zm0 16a3 3 0 1 0 0-6 3 3 0 0 0 0 6zm-16-32a3 3 0 1 0 0-6 3 3 0 0 0 0 6zm80-176a3 3 0 1 0 0-6 3 3 0 0 0 0 6zm16 0a3 3 0 1 0 0-6 3 3 0 0 0 0 6zm-16-16a3 3 0 1 0 0-6 3 3 0 0 0 0 6zm32 48a3 3 0 1 0 0-6 3 3 0 0 0 0 6zm16-16a3 3 0 1 0 0-6 3 3 0 0 0 0 6zm0-32a3 3 0 1 0 0-6 3 3 0 0 0 0 6zm112 176a3 3 0 1 0 0-6 3 3 0 0 0 0 6zm-16 16a3 3 0 1 0 0-6 3 3 0 0 0 0 6zm0 16a3 3 0 1 0 0-6 3 3 0 0 0 0 6zm0 16a3 3 0 1 0 0-6 3 3 0 0 0 0 6zM17 180a3 3 0 1 0 0-6 3 3 0 0 0 0 6zm0 16a3 3 0 1 0 0-6 3 3 0 0 0 0 6zm0-32a3 3 0 1 0 0-6 3 3 0 0 0 0 6zm16 0a3 3 0 1 0 0-6 3 3 0 0 0 0 6zM17 84a3 3 0 1 0 0-6 3 3 0 0 0 0 6zm32 64a3 3 0 1 0 0-6 3 3 0 0 0 0 6zm16-16a3 3 0 1 0 0-6 3 3 0 0 0 0 6z"></path>
        </pattern>

        <filter id="blur-filter">
            <feGaussianBlur in="SourceGraphic" stdDeviation="2"/>
        </filter>

        <radialGradient id="vignette-gradient">
            <stop offset="0%" stop-color="white" stop-opacity="1"/>
            <stop offset="58%" stop-color="white" stop-opacity="0"/>
        </radialGradient>

        <mask id="center-mask">
            <rect width="175%" height="175%" x="-37.5%" y="-37.5%" fill="url(#vignette-gradient)"/>
        </mask>
    </defs>

    <g>
        <!-- Sharp center pattern -->
        <rect
                width="175%"
                height="175%"
                x="-37.5%"
                y="-37.5%"
                fill="url(#overlayPattern)"
                mask="url(#center-mask)"
        />

        <!-- Blurred edges -->
        <rect
                width="175%"
                height="175%"
                x="-37.5%"
                y="-37.5%"
                fill="url(#overlayPattern)"
                filter="url(#blur-filter)"
                mask="url(#center-mask)"
                style="mix-blend-mode: multiply"
        />
    </g>

    <svg xmlns="http://www.w3.org/2000/svg" viewBox="0 0 24 24" fill="#fff" x="90" y="120" width="150" height="200">
        <path d="M11.852 2.249a.1.1 0 0 0-.026.005l-2.687.944a.1.1 0 0 0-.073.05L7.602 5.93a.1.1 0 0 0-.069-.03.1.1 0 0 1 .012 0l-2.77-1.038a.1.1 0 0 0-.039-.008.1.1 0 0 0-.013.002.1.1 0 0 0-.014.004l-2.682.885a.1.1 0 0 0-.068.082.1.1 0 0 0-.002.013v11.735a.1.1 0 0 0 .063.092l2.78 1.14a.1.1 0 0 0 .087.004l2.601-1.066 1.52 2.765a.1.1 0 0 0 .049.043l2.896 1.188a.1.1 0 0 0 .082.004l2.92-1.2a.1.1 0 0 0 .063-.091v-3.829l.783 1.038a.1.1 0 0 0 .047.033l3.232 1.12.002.003a.1.1 0 0 0 .086.004l2.813-1.156a.1.1 0 0 0 .062-.094V5.84a.1.1 0 0 0-.08-.097L19.166 4.72a.1.1 0 0 0-.049-.006.1.1 0 0 0-.023.006l-2.885 1.197a.1.1 0 0 0-.002 0 .1.1 0 0 0-.045.028l-1.46 1.506V3.315a.1.1 0 0 0-.067-.121l-2.744-.94a.1.1 0 0 0-.04-.005zm.007.207 2.453.84-2.351.92-2.512-.917Zm-2.658.964 2.615.955-2.271 3.907-.647.26-1.185-2.399Zm9.934 1.502 2.531.924-2.691 1.102-2.47-.936zm-14.397.139 2.52.943-2.281.922-2.63-1.074Zm-2.582.928 2.746 1.125 3.914 7.59a.1.1 0 0 0 .19-.045V8.795l2.892 1.186v11.521l-2.732-1.12-4.23-7.696a.1.1 0 0 0-.106-.05.1.1 0 0 0-.082.099v5.834l-2.592-1.063zm14.104.142 2.615.993v6.843l-3.766-5.35a.1.1 0 0 0-.054-.038l-.832-.344Zm-4.293 1.397 2.797 1.146-2.766 1.133-2.826-1.16.476-.19ZM9 8.745a.1.1 0 0 1 .006.023A.1.1 0 0 0 9 8.745zm6.018 4.83 3.824 4.949-2.9-1.008-.924-1.223zm-10.27 5.144a.1.1 0 0 0 .004.028.1.1 0 0 1-.004-.028z"/>
    </svg>
    <svg xmlns="http://www.w3.org/2000/svg" viewBox="0 0 24 24" fill="#fff" x="260" y="120" width="150" height="200">
        <path d="M12 2 3.34 7v10L12 22l8.625-4.979.035-.023V7l-.373-.215-4.64 2.678L12 7.359 7.979 9.678v4.642L12 16.64l4.021-2.32v-1.386l1.67-.963v3.314L12 18.57l-5.69-3.285v-6.57L12 5.43l3.873 2.234 2.596-1.5v-.43h-.002L12 2z"/>
    </svg>
    <svg xmlns="http://www.w3.org/2000/svg" viewBox="0 0 24 24" fill="#fff" x="430" y="120" width="150" height="200">
        <path d="M17.84 16.94h-1.87v-6.15h1.87v6.15M18 8.58c0 .61-.5 1.11-1.1 1.11a1.11 1.11 0 0 1-1.11-1.11c0-.62.5-1.12 1.11-1.12.6 0 1.1.5 1.1 1.12m3.82 8.36h-1.88v-6.15h1.88v6.15M22 8.58c0 .61-.5 1.11-1.12 1.11a1.11 1.11 0 0 1-1.11-1.11 1.116 1.116 0 1 1 2.23 0m-9.1-.53h2l-2.12 7.45s-.28 1.54-1.5 1.54c-1.21 0-1.49-1.54-1.49-1.54l-1.34-4.86-1.34 4.86s-.29 1.54-1.5 1.54-1.49-1.54-1.49-1.54L2 8.05h2l1.72 6.62L7.11 9.3c.32-1.35 1.34-1.33 1.34-1.33s1.02-.02 1.34 1.33l1.38 5.37 1.73-6.62Z"/>
    </svg>
    <svg xmlns="http://www.w3.org/2000/svg" viewBox="0 0 24 24" fill="#fff" x="600" y="120" width="150" height="200">
        <path d="M13.632 14.563c.765.306 2.381.55 3.643.55 1.38 0 1.951-.47 1.951-1.065 0-.541-.53-.848-2.054-1.407-2.039-.75-3.534-1.345-3.534-2.69 0-1.38 1.8-2.2 4.542-2.2 1.472 0 1.977.09 2.912.26L21.1 9.33c-.918-.171-1.732-.47-2.996-.47-1.355 0-1.933.434-1.933.876 0 .64.89.948 2.45 1.507 2.172.776 3.38 1.372 3.38 2.68 0 1.353-1.513 2.328-4.926 2.328-1.401 0-2.367-.09-3.442-.27v-1.417M6.368 8.914H4.744v6.154h1.624c2.493 0 4.066-1.074 4.066-3.068S8.861 8.914 6.368 8.914zm4.36 6.722c-.804.361-2.323.596-3.652.596H2V7.768h5.076c1.329 0 2.848.235 3.653.596 1.955.884 2.592 2.3 2.592 3.636 0 1.335-.631 2.752-2.594 3.636"/>
    </svg>
    <svg xmlns="http://www.w3.org/2000/svg" viewBox="0 0 24 24" fill="#fff" x="770" y="120" width="150" height="200">
        <path d="M9.5 4.27c1.38.26 3.4.87 4.5 1.23 2.75.95 3.69 2.13 3.69 4.79 0 2.6-1.6 3.58-3.64 2.6V8.05c0-.55-.1-1.08-.64-1.23-.41-.13-.65.25-.65.81v12.1L9.5 18.69V4.27m3.87 13.35 5.25-1.87c.6-.21.69-.51.21-.67-.49-.16-1.36-.11-1.96.1l-3.5 1.23v-1.96l.21-.07s1.01-.38 2.42-.51c1.43-.16 3.17.02 4.53.53 1.54.49 1.72 1.21 1.33 1.7-.4.5-1.36.85-1.36.85l-7.13 2.55v-1.88m-9.87-.2C1.93 17 1.66 16.05 2.38 15.5c.67-.5 1.8-.85 1.8-.85L8.86 13v1.88L5.5 16.09c-.6.21-.69.51-.21.67.48.16 1.36.12 1.95-.1l1.62-.58v1.69l-.32.06c-1.62.26-3.34.17-5.04-.41Z"/>
    </svg>
    <svg xmlns="http://www.w3.org/2000/svg" viewBox="0 0 24 24" fill="#fff" x="940" y="120" width="150" height="200">
        <path d="M2 7.247h19.22v4.328H2v5.957h20v-.782H2.853v-4.396H22V6.468H2Z"/>
    </svg>

    <text x="600" y="400" font-size="48" fill="#F5FCFE" font-family="Noto Sans" font-weight="700" text-anchor="middle">
        Decompilation Progress Reports
    </text>
    <text x="600" y="470" font-size="32" fill="#d0f1fc" font-family="Noto Sans" font-weight="normal"
          text-anchor="middle">decomp.dev
    </text>


</svg>