<svg xmlns="http://www.w3.org/2000/svg" viewBox="0 0 24 24" fill="currentColor">
    <path d="M6.588 11.75s1.541-.252 1.541-1.22c0-.931-1.649-1.326-3.405-1.326-1.577 0-2.616.18-2.616.18v.86c.716-.18 1.397-.323 2.33-.323 1.003 0 1.756.287 1.756.717 0 .502-.753.789-2.402.789h-.717v.788h.717c1.72 0 2.688.251 2.688.896 0 .574-.86.896-1.971.896-.968 0-1.828-.215-2.509-.394v.932c.358.071 1.254.25 2.903.25 1.864 0 3.477-.609 3.477-1.648 0-.896-1.147-1.398-1.792-1.398m13.19-.25c-1.04-.36-1.613-.574-1.613-1.004 0-.287.394-.574 1.254-.574.825 0 1.362.18 1.972.323v-.86c-.61-.108-.932-.18-1.9-.18-1.792 0-2.975.538-2.975 1.434 0 .86.968 1.254 2.33 1.756 1.003.359 1.362.574 1.362.932 0 .394-.359.717-1.29.717-.825 0-1.864-.143-2.402-.358v.931c.717.108 1.326.18 2.258.18 2.222 0 3.226-.645 3.226-1.506 0-.896-.789-1.29-2.222-1.792m-5.162-1.865c-.537-.25-1.505-.394-2.4-.394H8.881v5.556h3.333c.86 0 1.864-.144 2.401-.395 1.29-.573 1.685-1.505 1.685-2.365.036-.896-.394-1.828-1.685-2.402m-2.831 4.373H10.71V9.993h1.075c1.649 0 2.652.717 2.652 2.007 0 1.326-1.04 2.007-2.652 2.007"/>
</svg>
