<svg xmlns="http://www.w3.org/2000/svg" viewBox="0 0 24 24" fill="currentColor">
    <path d="m5.748 13.703-.943-.016c.064-.19.147-.404.227-.583l.953-.003a9 9 0 0 1-.237.602m1.458.787-1.19-.007.333-.808q.591-.005 1.185.014zm1.974-.2c-.138.317-.255.657-.397.976l-1.338-.016.394-.969zm-4.7-1.557-.687-.004a6 6 0 0 1 .195-.494c.234-.002.468-.016.702-.007zm-1.24-1.004c-.177.004-.356.023-.533.018l.172-.418c.177-.009.354-.018.53-.018zm3.131.423-.945-.012.227-.58c.321.009.642-.01.961.002zm1.451.798-1.18-.004.32-.803c.397-.003.794-.005 1.191.004zm1.593.759-1.343-.03.39-.953 1.338.014zM5.131 11.13c-.229-.007-.465.01-.697-.003l.21-.52.685.017c-.05.163-.122.342-.197.505m-1.246-.999-.53.012.163-.415c.172-.016.358-.016.537-.016zm3.772-1.163L6.71 8.96l.232-.592c.319.005.638 0 .96.007zm.276.799.32-.812h1.181l-.319.812zm2.785.705-1.343-.009.388-.966 1.34.005zM6.424 7.933c-.225.012-.461 0-.69.005l.192-.514c.225-.019.464.009.69.002zM5.173 6.928c-.177.005-.354.023-.533.017l.175-.418.525-.025zm3.125.452q-.474.001-.95-.017l.234-.581c.32.005.638-.007.957.002zm1.452.8c-.395 0-.792.007-1.19-.005l.331-.808c.397-.004.792.003 1.19.005zm1.58.77-1.333-.014.387-.971 1.343.01zM7.059 6.347h-.694l.205-.521c.234.011.463 0 .695.014zm-1.24-1.011-.533.023.166-.42c.176-.02.355-.011.532-.023zm-.669 9.988q-.562.008-1.128-.009l.269-.665c.376 0 .755.011 1.136.007zm8.618-7.379-1.687.011.593-1.47c.573-.065 1.152-.127 1.728-.109zM6.483 3.826l-.64.014.185-.475c.216-.005.432-.014.648-.014zm1.275.94c-.285-.009-.57-.007-.856-.018l.225-.55c.287.008.573-.006.86.013zm4.295 2.662-1.595-.007.463-1.159 1.598.014zm-2.991-.811.347-.877 1.407.003-.354.883zm-.07-.805-1.13-.009.262-.661c.376 0 .755-.014 1.136 0zm4.159 3.666q-.843.021-1.691.026l.55-1.361 1.683-.007zm-.634 1.563-1.687.023-.01-.004.547-1.361 1.7-.026zM3.933 8.574l.186-.47.65-.024-.191.484zm6.269 4.036.544-1.356 1.69-.021-.54 1.359zM5.825 9.549l-.856-.012.225-.55c.287.009.571-.005.858.013zm4.301 2.644L8.53 12.18l.459-1.152 1.6.014zm-1.593-.787L7.14 11.4l-.011-.005.356-.874 1.404.002zM7.059 10.6l-1.127-.01.26-.662q.571-.007 1.144.005zm4.201 3.567-.007.016-1.69.02.554-1.392 1.698-.019zm-.635 1.569-1.694.041-.011-.005.562-1.379 1.687-.016zM2.64 13.35c-.213-.007-.427.014-.64 0l.186-.454c.218-.018.436-.014.656-.023zm7.31 4.054a16 16 0 0 0-1.694.028l.59-1.464 1.7-.03zm-6.052-3.067-.863.005.213-.548c.292 0 .578-.01.87-.003zm4.312 2.597-1.588-.023.466-1.15 1.588.017zm-2.985-.804.356-.887 1.398.01-.356.888zM20.196 9.907c-.59-.672-1.41-1.15-2.316-1.45l-1.418 3.509c.904.333 1.703.79 2.346 1.375zm-1.84 4.579c-.595-.64-1.446-1.095-2.342-1.414l-1.44 3.585c.878.347 1.702.758 2.372 1.308zM22 9.499l-4.505 11.15c-1.168-1.593-3.2-2.598-5.24-2.98a15 15 0 0 0-2.11-.252l.59-1.45c.9.025 1.802.13 2.702.355l1.455-3.605c-.922-.223-1.843-.25-2.76-.2l.472-1.184c.909-.019 1.82.039 2.731.289L16.74 8.15c-.92-.18-1.841-.244-2.757-.212l.63-1.57c2.088-.009 4.504.574 6.216 1.96A6.6 6.6 0 0 1 22 9.5"/>
</svg>
